<svg width="165" height="83" viewBox="0 0 165 83" fill="none" xmlns="http://www.w3.org/2000/svg">
<path d="M32.4013 54.5118L27.0436 54.5074C24.9713 54.5074 22.9571 54.1446 21.1041 53.5118C21.0907 53.5074 21.0773 53.5029 21.0593 53.4985C11.8658 52.2064 4.99973 44.6971 5.41599 35.9753L5.68902 30.2891V30.2626C5.67985 30.2714 5.66666 30.2803 5.65772 30.2891C4.64169 31.329 4.05982 32.6742 4.10458 34.1212L4.3239 40.803C4.60589 49.7062 13.325 57.158 23.8031 56.8394L55.1524 55.8172L32.4281 54.5118L32.4013 54.5118Z" fill="#DEDEDE"/>
<path d="M12.9982 23.6161C13.2847 23.4967 13.5801 23.3949 13.8845 23.3197L12.2373 23.3108C8.75954 23.2887 5.89943 25.7933 5.74725 28.9926L5.68903 30.2581C6.58421 29.3554 7.77032 28.6828 9.16681 28.3731C9.52488 26.2313 11.0154 24.4481 12.9982 23.6161" fill="#D3D3D3"/>
<path d="M143.883 17.4786C135.956 17.4786 74.9672 20.4301 74.9672 20.4301L15.2138 23.1161C14.7572 23.1383 14.3096 23.2091 13.8799 23.3197C13.5801 23.3993 13.2846 23.4967 12.9982 23.6162C11.0154 24.4481 9.52488 26.2314 9.16681 28.3731C9.18915 28.3731 9.20704 28.3687 9.22503 28.3643C9.5831 28.289 9.99489 28.2359 10.3664 28.2094L73.4588 23.8153C73.4588 23.8153 74.5286 23.7357 76.395 23.5985C89.0798 22.6825 138.923 19.1026 146.228 18.8725C149.406 18.7752 151.563 18.9168 153.085 19.1823C151.841 18.3238 149.661 17.4787 143.883 17.4787" fill="#BFBFBF"/>
<path d="M9.0415 37.5684C9.0415 37.5507 9.04151 37.533 9.03692 37.5197C9.02776 37.2675 9.0235 37.0153 9.0235 36.7586L9.0414 29.3909C9.0728 29.028 9.11301 28.7094 9.16673 28.3776C7.77024 28.6829 6.58412 29.3555 5.68894 30.2626V30.2892L5.41591 35.9754C4.99965 44.6971 11.8657 52.2064 21.0592 53.4986C14.3006 51.1666 9.38158 44.8697 9.0414 37.5684" fill="#E9E9E9"/>
<path d="M160.667 26.0677C159.978 23.302 158.344 21.7001 157.226 20.9081C156.38 20.3593 155.565 19.6071 153.085 19.1779C153.546 19.4965 153.878 19.8106 154.218 20.0894C155.252 20.9966 156.747 22.8152 157.32 25.8774C157.615 27.4527 157.445 30.4396 157.055 33.9088C156.63 37.6613 155.95 41.9757 155.305 45.6927C155.305 45.7016 155.301 45.706 155.301 45.7149C155.301 45.706 155.305 45.7016 155.305 45.6927C154.997 47.476 154.697 49.1266 154.441 50.5028C154.339 51.0515 154.177 51.5028 153.913 51.9675C153.9 51.994 153.748 52.2684 153.649 52.3967H153.645V52.4011C153.694 52.3923 153.743 52.3834 153.792 52.379C156.098 52.0825 157.964 50.5426 158.331 48.5425C159.504 42.2146 161.594 29.767 160.667 26.0677" fill="#DEDEDE"/>
<path d="M55.4836 55.7996L55.5239 55.804L55.1524 55.8173L57.7574 55.9633L74.7211 56.4633V54.9323L55.4836 55.7996Z" fill="#D3D3D3"/>
<path d="M149.446 54.6048L145.302 54.6004L145.369 58.552L147.513 58.6139C150.01 58.7334 152.226 58.1626 152.79 55.9279C153.049 54.888 153.34 53.6933 153.649 52.3967C152.727 53.7419 151.174 54.6048 149.446 54.6048" fill="#D3D3D3"/>
<path d="M55.4836 55.7995L74.7211 54.9322V54.5472L32.4282 54.5118L55.1524 55.8172L55.5239 55.804L55.4836 55.7995Z" fill="#E9E9E9"/>
<path d="M153.645 52.3967C153.488 52.4144 153.331 52.4233 153.175 52.4321L145.266 52.6711L145.302 54.6004L149.446 54.6048C151.174 54.6048 152.727 53.7419 153.649 52.3967C153.649 52.3967 153.649 52.3967 153.654 52.3967H153.649H153.645" fill="#BFBFBF"/>
<path d="M157.055 33.9088C157.445 30.4396 157.61 27.4527 157.32 25.8774C156.747 22.8152 155.252 20.9965 154.218 20.0894C153.878 19.8106 153.542 19.4964 153.085 19.1778C153.085 19.1778 153.085 19.1778 153.081 19.1778C151.559 18.9168 149.406 18.7752 146.228 18.8725C138.928 19.0982 89.0842 22.6825 76.3994 23.5985C74.5285 23.7356 73.4632 23.8109 73.4632 23.8109L10.3708 28.2094C9.97689 28.2359 9.53826 28.2934 9.17123 28.3775C9.11302 28.7094 9.07727 29.028 9.04143 29.3909L9.02356 36.7586C9.02356 37.0108 9.02814 37.2674 9.04143 37.5197C9.04143 37.5329 9.04143 37.5506 9.04143 37.5683C9.3816 44.8697 14.3006 51.1665 21.0593 53.4985C21.0727 53.5029 21.0906 53.5074 21.104 53.5118C22.9571 54.1446 24.9712 54.5074 27.0436 54.5074L40.7802 54.5207L74.721 54.5473V54.5428L145.248 52.6711H145.266L153.175 52.4321C153.331 52.4277 153.488 52.4144 153.645 52.3967H153.649C153.649 52.3967 153.649 52.3967 153.654 52.3967C153.748 52.2684 153.9 51.994 153.913 51.9675C154.178 51.5028 154.334 51.0515 154.437 50.5028C154.697 49.1266 154.997 47.476 155.306 45.6928C155.306 45.7016 155.301 45.706 155.301 45.7149C155.301 45.706 155.306 45.7016 155.306 45.6928C155.95 41.9757 156.63 37.6613 157.056 33.9088" fill="#D2D2D2"/>
<path d="M36.828 38.4224C37.5889 38.4224 38.2155 38.3383 38.7123 38.1613C39.2092 37.9888 39.621 37.7188 39.9522 37.3516C40.2789 36.9887 40.534 36.5639 40.7086 36.0771C40.8876 35.5948 40.9772 35.0461 40.9772 34.4399C40.9772 33.7009 40.7892 33.1522 40.4132 32.7849C40.0372 32.4221 39.4419 32.2406 38.6273 32.2406C38.041 32.2406 37.6516 32.2495 37.4501 32.2628L36.1029 38.4224H36.828ZM40.2028 39.334C40.6639 39.7057 40.9995 40.0641 41.2099 40.4093C41.4247 40.7544 41.6038 41.2589 41.747 41.9182L42.0827 43.5112C42.2036 44.0909 42.3199 44.5024 42.4318 44.7502C42.5437 44.9936 42.6959 45.1972 42.8839 45.352C43.0719 45.5069 43.327 45.622 43.6582 45.6972L43.4971 46.4495H39.3882C39.1331 45.737 38.9093 44.8918 38.7213 43.9095L38.3498 42.02C38.2424 41.4536 38.117 41.0022 37.9693 40.6792C37.8261 40.3517 37.6381 40.1172 37.4188 39.9712C37.195 39.8296 36.8951 39.7544 36.5192 39.7544H35.803L34.975 43.3741C34.9212 43.6263 34.8855 43.8431 34.8586 44.0245C34.8362 44.206 34.8273 44.4361 34.8273 44.7104C34.8273 45.0556 34.9168 45.3034 35.0958 45.4494C35.2749 45.591 35.5569 45.6751 35.9418 45.6972L35.7807 46.4495H29.8277L29.9888 45.6972C30.3111 45.6087 30.5617 45.4804 30.7318 45.3211C30.9019 45.1618 31.0541 44.9405 31.1749 44.644C31.2958 44.352 31.4211 43.9316 31.542 43.3741L33.6412 33.9841C33.7396 33.5372 33.7889 33.0902 33.7889 32.6522C33.7889 32.3336 33.7128 32.099 33.5651 31.9486C33.4129 31.8026 33.1712 31.7052 32.8355 31.6609L32.9966 30.9087H38.7392C39.518 30.9087 40.1312 30.9308 40.5788 30.9706C41.0264 31.0149 41.4561 31.0945 41.8679 31.2229C42.2797 31.3468 42.6333 31.5016 42.9287 31.6875C43.2241 31.8734 43.4748 32.0946 43.6896 32.3557C43.9 32.6123 44.0611 32.9132 44.173 33.254C44.2848 33.5947 44.3386 33.9797 44.3386 34.4045C44.3386 35.5506 43.9984 36.5241 43.3136 37.3206C42.6288 38.1171 41.5904 38.7543 40.1939 39.2322L40.2028 39.334Z" fill="white"/>
<path d="M47.7223 40.2588C49.1322 40.2189 50.2154 39.9534 50.9629 39.4534C51.7104 38.9578 52.0863 38.2542 52.0863 37.3427C52.0863 36.9532 51.9969 36.6612 51.8178 36.4576C51.6343 36.2585 51.3836 36.1567 51.0614 36.1567C50.3452 36.1567 49.7052 36.5063 49.1322 37.2055C48.5593 37.9046 48.0894 38.9224 47.7223 40.2588ZM53.8275 44.082C53.0487 44.9449 52.2161 45.5909 51.321 46.0069C50.4258 46.4229 49.4545 46.6308 48.4116 46.6308C47.5164 46.6308 46.7511 46.476 46.12 46.1662C45.4933 45.8564 45.0189 45.3918 44.6966 44.7812C44.3788 44.1705 44.2222 43.4404 44.2222 42.5908C44.2222 42.1969 44.2759 41.6925 44.3833 41.0774C44.5265 40.2411 44.7503 39.4976 45.0502 38.8427C45.4262 38.0418 45.9185 37.3471 46.5228 36.7718C47.1315 36.1966 47.8432 35.7496 48.6623 35.4399C49.4769 35.1301 50.3765 34.9708 51.3478 34.9708C52.5026 34.9708 53.3754 35.1788 53.9752 35.5948C54.5749 36.0063 54.8748 36.6391 54.8748 37.4887C54.8748 38.0684 54.7585 38.5772 54.5212 39.0153C54.2885 39.4578 53.8991 39.8561 53.353 40.2101C52.807 40.5685 52.0371 40.8561 51.0435 41.0774C50.0498 41.2986 48.8503 41.4225 47.4448 41.4535C47.3464 41.9005 47.2971 42.3651 47.2971 42.843C47.2971 43.1218 47.3239 43.3917 47.3777 43.6439C47.4314 43.8961 47.5254 44.1218 47.6641 44.321C47.8029 44.5201 47.9864 44.675 48.2192 44.7944C48.4474 44.9095 48.7428 44.9714 49.1054 44.9714C49.7812 44.9714 50.39 44.8343 50.936 44.5643C51.4821 44.2988 52.1222 43.8165 52.8562 43.1262L53.8275 44.082Z" fill="white"/>
<path d="M56.4638 43.2635C56.4996 43.8077 56.6115 44.2458 56.804 44.5777C56.992 44.9096 57.2202 45.1353 57.4977 45.2592C57.7753 45.3875 58.0975 45.4494 58.4645 45.4494C59.0733 45.4494 59.5432 45.3034 59.87 45.0114C60.2012 44.7193 60.3668 44.3078 60.3668 43.7768C60.3668 43.4537 60.3131 43.1882 60.2057 42.967C60.0983 42.7457 59.9192 42.5333 59.6775 42.3253C59.4313 42.1129 59.0285 41.843 58.478 41.5111C57.7081 41.0554 57.1531 40.5819 56.804 40.0907C56.4504 39.6039 56.2803 39.0552 56.2803 38.4446C56.2803 37.3295 56.701 36.471 57.547 35.8736C58.3885 35.2718 59.5701 34.9753 61.0919 34.9753C61.6827 34.9753 62.3183 35.0196 62.9986 35.1169C63.679 35.2099 64.2967 35.3382 64.8561 35.4975L64.2564 38.2189H62.7972C62.7256 37.5109 62.5466 36.9932 62.2512 36.6613C61.9558 36.325 61.5305 36.1568 60.9755 36.1568C60.4608 36.1568 60.049 36.2896 59.7402 36.5507C59.4269 36.8117 59.2702 37.1657 59.2702 37.6171C59.2702 37.8959 59.3329 38.1437 59.4492 38.3561C59.5701 38.5685 59.7581 38.7809 60.0222 38.9933C60.2818 39.2057 60.6712 39.4623 61.1859 39.7677C61.996 40.2456 62.5824 40.7412 62.936 41.2456C63.2896 41.7545 63.4641 42.3519 63.4641 43.0334C63.4641 43.8077 63.2538 44.4715 62.8375 45.0158C62.4168 45.5645 61.8438 45.9672 61.1188 46.2327C60.3937 46.4982 59.5656 46.6309 58.6391 46.6309C57.8155 46.6309 57.0546 46.5822 56.3474 46.4849C55.6402 46.3875 54.9778 46.2548 54.3557 46.0866L55.0002 43.2635H56.4638Z" fill="white"/>
<path d="M72.6442 44.3785C72.0981 44.9626 71.6147 45.4096 71.1806 45.7238C70.7509 46.0335 70.3033 46.2636 69.8378 46.4096C69.3678 46.5601 68.8262 46.6309 68.2131 46.6309C67.5909 46.6309 67.0717 46.5203 66.6599 46.2946C66.2526 46.0733 65.9527 45.7724 65.7692 45.3963C65.5857 45.0202 65.4917 44.5998 65.4917 44.1263C65.4917 43.7723 65.5185 43.4316 65.5723 43.1086C65.626 42.7855 65.7379 42.2545 65.908 41.52L67.0941 36.5772H65.5409L65.7021 35.8293C66.1765 35.7984 66.548 35.7187 66.8166 35.5948C67.0851 35.4665 67.3134 35.2851 67.5014 35.0417C67.6894 34.7983 67.8684 34.4664 68.0385 34.0416C68.2086 33.6168 68.3966 33.0371 68.6025 32.307H71.3686L70.6972 35.1567H73.4991L73.1858 36.5772H70.366L69.0859 41.781C69.0321 42.0111 68.9828 42.2324 68.9382 42.4536C68.8933 42.6749 68.8531 42.8829 68.8218 43.0864C68.7904 43.2856 68.768 43.4537 68.7591 43.5865C68.7457 43.7192 68.7412 43.8387 68.7412 43.9449C68.7412 44.3033 68.8039 44.5644 68.9382 44.7237C69.068 44.8874 69.2604 44.9715 69.5111 44.9715C69.8602 44.9715 70.2138 44.8476 70.5763 44.6042C70.9434 44.3653 71.3372 43.9891 71.758 43.4803L72.6442 44.3785Z" fill="white"/>
<path d="M81.3991 39.3693C81.4528 39.1259 81.4975 38.856 81.5289 38.5551C81.5647 38.2542 81.5827 37.9622 81.5827 37.6834C81.5827 37.1833 81.4842 36.8028 81.2962 36.5461C81.1037 36.2851 80.7859 36.1567 80.3518 36.1567C79.6356 36.1567 79.0045 36.5107 78.4495 37.2232C77.899 37.9312 77.4514 38.887 77.1112 40.0862C76.7755 41.2854 76.6054 42.3607 76.6054 43.3076C76.6054 43.8607 76.6905 44.2767 76.8561 44.5466C77.0172 44.821 77.2768 44.9582 77.6214 44.9582C78.1272 44.9582 78.642 44.7148 79.1701 44.2236C79.6983 43.7368 80.119 43.1616 80.4413 42.5023C80.7636 41.8385 81.0545 40.9358 81.3052 39.7897L81.3991 39.3693ZM83.1358 35.7939L84.1742 34.9708L85.4632 35.1567L83.6908 43.0908C83.5968 43.4935 83.5296 43.8165 83.4894 44.0599C83.4446 44.3033 83.4267 44.5068 83.4267 44.675C83.4267 45.0157 83.5072 45.2635 83.6773 45.4139C83.8474 45.5644 84.1473 45.6617 84.577 45.6971L84.4517 46.4494H80.0295L80.6516 44.1174L80.4995 44.0687C79.9758 44.7369 79.4924 45.2546 79.0448 45.6263C78.5927 45.9936 78.1541 46.2547 77.7199 46.4052C77.2858 46.5556 76.7845 46.6308 76.216 46.6308C75.6789 46.6308 75.2044 46.5069 74.7971 46.2547C74.3898 46.0069 74.0676 45.6086 73.8303 45.0644C73.5931 44.5245 73.4767 43.8342 73.4767 43.0023C73.4767 42.2058 73.5707 41.4004 73.7587 40.5862C73.9467 39.7764 74.2242 39.0197 74.5912 38.3162C74.9583 37.6126 75.4238 37.0108 75.9833 36.5107C76.5472 36.0107 77.1828 35.6257 77.89 35.3647C78.6017 35.1036 79.376 34.9708 80.213 34.9708C81.3544 34.9708 82.3301 35.2452 83.1358 35.7939Z" fill="white"/>
<path d="M86.8149 35.1567H91.5952L90.154 41.3474C89.9481 42.2324 89.8183 42.8386 89.7735 43.1705C89.7287 43.5068 89.7064 43.7679 89.7064 43.9582C89.7064 44.3122 89.7735 44.5732 89.9168 44.7325C90.06 44.8918 90.2704 44.9715 90.5479 44.9715C90.7 44.9715 90.8657 44.9317 91.0402 44.8609C91.2148 44.7901 91.3938 44.6839 91.5684 44.5423C91.7474 44.4051 91.9622 44.206 92.2174 43.9582C92.468 43.7059 92.6918 43.4404 92.8843 43.1528C93.0767 42.8696 93.2334 42.5643 93.3632 42.2368C93.4885 41.9138 93.6049 41.4978 93.7123 40.9978L94.979 35.1567H98.2867L96.4784 43.1926C96.4381 43.3741 96.3845 43.6351 96.3218 43.9714C96.2546 44.3122 96.2233 44.5954 96.2233 44.821C96.2233 45.1396 96.3128 45.3609 96.4919 45.476C96.6754 45.5954 96.9574 45.6707 97.3423 45.6972L97.1678 46.4495H92.8261L93.4483 44.1175L93.3095 44.0688C92.5979 44.9494 91.9086 45.5998 91.2417 46.0114C90.5792 46.4273 89.8228 46.6309 88.9813 46.6309C88.2025 46.6309 87.5893 46.4141 87.1372 45.976C86.6852 45.5423 86.4569 44.9405 86.4569 44.1706C86.4569 43.6794 86.533 43.0908 86.6852 42.4094L87.6341 38.1967C87.7057 37.8472 87.7594 37.5772 87.7863 37.387C87.8131 37.1967 87.8265 37.033 87.8265 36.9002C87.8265 36.5639 87.7414 36.3294 87.5758 36.1922C87.4057 36.055 87.1058 35.9621 86.6762 35.909L86.8149 35.1567Z" fill="white"/>
<path d="M108.917 38.2543H106.858C106.858 37.7454 106.8 37.3914 106.688 37.1923C106.576 36.9976 106.388 36.8958 106.12 36.8958C105.999 36.8958 105.869 36.9224 105.735 36.971C105.6 37.0197 105.444 37.1082 105.274 37.2321C105.099 37.3604 104.893 37.564 104.651 37.8428C104.41 38.1215 104.208 38.3959 104.047 38.6614C103.886 38.9269 103.752 39.2057 103.644 39.4977C103.537 39.7898 103.434 40.1615 103.344 40.6084L102.078 46.4495H98.7701L100.578 38.4136C100.748 37.6613 100.833 37.1171 100.833 36.7852C100.833 36.4666 100.744 36.2453 100.56 36.1303C100.381 36.0108 100.099 35.9356 99.7145 35.909L99.8891 35.1568L103.054 35.0284H104.356L103.492 37.6702L103.631 37.7189C104.275 36.8162 104.956 36.1303 105.672 35.6701C106.384 35.2054 107.153 34.9753 107.986 34.9753C108.492 34.9753 109.029 35.0461 109.597 35.1877L108.917 38.2543Z" fill="white"/>
<path d="M116.392 39.3693C116.446 39.1259 116.49 38.856 116.526 38.5551C116.562 38.2542 116.58 37.9622 116.58 37.6834C116.58 37.1833 116.481 36.8028 116.289 36.5461C116.096 36.2851 115.783 36.1567 115.344 36.1567C114.633 36.1567 113.997 36.5107 113.447 37.2232C112.892 37.9312 112.449 38.887 112.108 40.0862C111.773 41.2854 111.603 42.3607 111.603 43.3076C111.603 43.8607 111.683 44.2767 111.849 44.5466C112.014 44.821 112.27 44.9582 112.614 44.9582C113.124 44.9582 113.639 44.7148 114.163 44.2236C114.691 43.7368 115.116 43.1616 115.438 42.5023C115.761 41.8385 116.047 40.9358 116.302 39.7897L116.392 39.3693ZM118.133 35.7939L119.171 34.9708L120.46 35.1567L118.683 43.0908C118.594 43.4935 118.527 43.8165 118.482 44.0599C118.442 44.3033 118.419 44.5068 118.419 44.675C118.419 45.0157 118.504 45.2635 118.674 45.4139C118.845 45.5644 119.14 45.6617 119.574 45.6971L119.444 46.4494H115.022L115.644 44.1174L115.497 44.0687C114.973 44.7369 114.485 45.2546 114.037 45.6263C113.59 45.9936 113.147 46.2547 112.713 46.4052C112.278 46.5556 111.777 46.6308 111.209 46.6308C110.672 46.6308 110.202 46.5069 109.794 46.2547C109.387 46.0069 109.065 45.6086 108.827 45.0644C108.59 44.5245 108.469 43.8342 108.469 43.0023C108.469 42.2058 108.563 41.4004 108.751 40.5862C108.939 39.7764 109.217 39.0197 109.588 38.3162C109.955 37.6126 110.421 37.0108 110.98 36.5107C111.54 36.0107 112.175 35.6257 112.887 35.3647C113.599 35.1036 114.369 34.9708 115.206 34.9708C116.352 34.9708 117.327 35.2452 118.133 35.7939Z" fill="white"/>
<path d="M132.702 46.4494H127.922L129.363 40.2588C129.569 39.3782 129.694 38.7675 129.743 38.4356C129.788 38.0993 129.811 37.8383 129.811 37.648C129.811 37.3072 129.739 37.055 129.591 36.8869C129.444 36.7187 129.233 36.6346 128.96 36.6346C128.714 36.6346 128.445 36.7276 128.154 36.909C127.859 37.0904 127.532 37.3781 127.174 37.763C126.812 38.148 126.525 38.5595 126.31 38.9932C126.096 39.4268 125.921 39.9667 125.791 40.6083L124.525 46.4494H121.221L123.03 38.4135C123.065 38.2277 123.119 37.971 123.182 37.6303C123.249 37.294 123.28 37.0108 123.28 36.7851C123.28 36.4665 123.191 36.2452 123.012 36.1302C122.828 36.0107 122.546 35.9399 122.166 35.9089L122.336 35.1567L125.505 35.0328H126.713L126.055 37.4887L126.194 37.5374C126.722 36.8913 127.215 36.3824 127.667 36.0151C128.123 35.6479 128.571 35.3824 129.023 35.2186C129.47 35.0549 129.967 34.9708 130.513 34.9708C131.305 34.9708 131.928 35.1921 132.38 35.6302C132.832 36.0638 133.056 36.6656 133.056 37.4312C133.056 37.9268 132.984 38.5153 132.827 39.1967L131.883 43.4094C131.807 43.759 131.753 44.0289 131.726 44.2192C131.699 44.4095 131.686 44.5732 131.686 44.7059C131.686 45.0511 131.775 45.29 131.945 45.4272C132.12 45.56 132.415 45.6529 132.841 45.6971L132.702 46.4494Z" fill="white"/>
<path d="M141.81 44.3785C141.269 44.9626 140.781 45.4096 140.351 45.7238C139.922 46.0335 139.47 46.2636 139.004 46.4096C138.534 46.5601 137.993 46.6309 137.379 46.6309C136.757 46.6309 136.238 46.5203 135.831 46.2946C135.419 46.0733 135.123 45.7724 134.935 45.3963C134.752 45.0202 134.662 44.5998 134.662 44.1263C134.662 43.7723 134.685 43.4316 134.739 43.1086C134.797 42.7855 134.904 42.2545 135.074 41.52L136.26 36.5772H134.707L134.868 35.8293C135.343 35.7984 135.714 35.7187 135.983 35.5948C136.256 35.4665 136.48 35.2851 136.672 35.0417C136.86 34.7983 137.035 34.4664 137.205 34.0416C137.375 33.6168 137.563 33.0371 137.769 32.307H140.535L139.863 35.1567H142.665L142.352 36.5772H139.532L138.252 41.781C138.198 42.0111 138.149 42.2324 138.104 42.4536C138.06 42.6749 138.019 42.8829 137.988 43.0864C137.957 43.2856 137.939 43.4537 137.925 43.5865C137.916 43.7192 137.907 43.8387 137.907 43.9449C137.907 44.3033 137.975 44.5644 138.104 44.7237C138.234 44.8874 138.427 44.9715 138.682 44.9715C139.026 44.9715 139.38 44.8476 139.747 44.6042C140.11 44.3653 140.504 43.9847 140.924 43.4803L141.81 44.3785Z" fill="white"/>
<path d="M145.378 59.0165L145.266 52.6799V52.671H145.248L74.721 54.5428V66.517H136.466C136.466 66.517 140.669 66.7294 143.068 64.3443C145.033 62.384 145.454 60.0343 145.378 59.0165" fill="#B9B9B9"/>
<path d="M90.5389 60.4237H88.7844V62.6362H90.5389C91.3133 62.6362 91.7474 62.1672 91.7474 61.5255C91.7474 60.8839 91.3133 60.4237 90.5389 60.4237ZM90.436 57.3571H88.7844V59.4369H90.436C91.1477 59.4369 91.6311 59.0696 91.6311 58.397C91.6311 57.7244 91.1477 57.3571 90.436 57.3571ZM90.6419 63.6274H87.6744V56.3704H90.53C91.8907 56.3704 92.7456 57.1315 92.7456 58.3572C92.7456 59.1404 92.2488 59.7024 91.7564 59.8971C92.3249 60.1184 92.8575 60.6582 92.8575 61.5786C92.8575 62.915 91.9444 63.6274 90.6419 63.6274Z" fill="white"/>
<path d="M98.3538 57.3572H96.7022V59.6317H98.3538C99.0968 59.6317 99.6026 59.2113 99.6026 58.4988C99.6026 57.7864 99.0968 57.3572 98.3538 57.3572ZM99.6429 63.6275L98.0942 60.5698H96.7022V63.6275H95.5877V56.366H98.4344C99.8264 56.366 100.713 57.2554 100.713 58.49C100.713 59.5299 100.073 60.1892 99.249 60.4149L100.941 63.6275H99.6429Z" fill="white"/>
<path d="M105.855 58.0076L104.71 61.2291H106.97L105.855 58.0076ZM107.785 63.6274L107.279 62.1672H104.378L103.877 63.6274H102.691L105.381 56.3704H106.276L108.971 63.6274H107.785Z" fill="white"/>
<path d="M115.792 63.6275L112.404 58.521V63.6275H111.289V56.366H112.31L115.702 61.4636V56.366H116.817V63.6275H115.792Z" fill="white"/>
<path d="M123.723 57.8439C123.414 57.512 123.003 57.3571 122.475 57.3571H121.123V62.6362H122.475C123.003 62.6362 123.414 62.4858 123.723 62.1495C124.104 61.7291 124.113 60.9459 124.113 59.9458C124.113 58.9457 124.104 58.2643 123.723 57.8439ZM124.484 62.9416C124.019 63.4018 123.352 63.6274 122.586 63.6274H120.008V56.3704H122.586C123.352 56.3704 124.019 56.5916 124.484 57.0518C125.281 57.8351 125.227 58.8971 125.227 59.9458C125.227 60.9945 125.281 62.1583 124.484 62.9416Z" fill="white"/>
<path d="M130.101 63.685C129 63.685 128.204 63.4328 127.505 62.7292L128.248 62.0035C128.786 62.5345 129.372 62.6982 130.124 62.6982C131.082 62.6982 131.641 62.2911 131.641 61.5876C131.641 61.269 131.547 61.0079 131.35 60.8353C131.167 60.6583 130.979 60.5875 130.549 60.5255L129.681 60.4061C129.081 60.322 128.607 60.1184 128.289 59.822C127.926 59.4857 127.752 59.0299 127.752 58.4369C127.752 57.1714 128.678 56.3085 130.204 56.3085C131.176 56.3085 131.856 56.5519 132.483 57.1315L131.771 57.8263C131.319 57.397 130.795 57.2643 130.173 57.2643C129.309 57.2643 128.835 57.7555 128.835 58.3971C128.835 58.6626 128.915 58.8971 129.112 59.0697C129.3 59.2334 129.6 59.3529 129.936 59.406L130.773 59.5255C131.453 59.6317 131.834 59.7954 132.143 60.0698C132.545 60.4149 132.742 60.9371 132.742 61.5566C132.742 62.8929 131.641 63.685 130.101 63.685Z" fill="white"/>
</svg>
