<svg width="165" height="83" viewBox="0 0 165 83" fill="none" xmlns="http://www.w3.org/2000/svg">
<path fill-rule="evenodd" clip-rule="evenodd" d="M2 21.277H163V60.0821H2V21.277Z" fill="#D2D2D2"/>
<path fill-rule="evenodd" clip-rule="evenodd" d="M12.8245 36.1393L8.60513 55.1282L12.9422 55.0097L14.6999 47.227L20.9116 47.1093L20.7947 42.6272H15.7545L16.2238 40.6223L22.5524 40.5038L22.4355 36.1393H12.8245ZM34.5073 40.5038L34.2726 40.2677L33.9211 40.15L33.5695 40.0324L33.1011 39.9139H32.2811L31.8118 40.0324L31.3434 40.15H31.2265V36.7292L31.6949 36.6116L32.1642 36.4939H32.5158L32.9842 36.3754H34.5081L34.8597 36.4939L35.2112 36.6116H35.5627L35.9143 36.7292L36.1481 36.8468L36.4996 36.9644L36.7342 37.2006L36.9689 37.3182L37.3204 37.5535L37.672 37.7896L38.0235 38.1434L38.2573 38.3786L38.4919 38.7324L38.7257 39.0861L38.9604 39.4399L39.195 39.7937L39.3119 40.1474L39.4288 40.5012L39.5457 40.9726L39.6626 41.3272L39.7803 41.7986V42.27L39.8972 42.6246V44.0388L39.7803 44.5119L39.6626 44.9833L39.5457 45.9261L39.4288 46.3992L39.0773 47.342L38.8426 47.6966L38.7257 48.168L38.1395 49.1108L37.9057 49.4654L37.6711 49.9368L37.3196 50.2914L37.0858 50.5258L36.8511 50.762L36.6173 50.9981L36.3827 51.2325L36.1481 51.4686L35.7965 51.8215L35.5627 52.0576L35.2112 52.2938L34.8597 52.5282L34.5081 52.7643L34.1557 52.9987L33.9219 53.2348L33.4535 53.3533L33.102 53.5894L32.7504 53.7062L32.3989 53.9423L31.9305 54.0608L31.5789 54.1793L31.2274 54.2978V50.7585H31.3443L31.6958 50.5224L32.1651 50.288L32.6335 50.0518L32.9851 49.8157L33.3366 49.4628L33.6881 49.2267L33.9219 48.8738L34.2735 48.6377L34.5081 48.2848L34.8597 47.8134L35.2112 47.3403L35.4458 46.7504L35.6796 46.1605L35.9143 45.6891L36.0312 45.0992L36.1481 44.5093V42.9749L36.0312 42.385L35.7965 41.9136L35.5627 41.559L35.3289 41.2061L34.9774 40.8515L34.5073 40.5038ZM31.2257 40.15L30.7572 40.2677L30.2888 40.5038L29.8204 40.739L29.3519 40.9743L28.8835 41.3289L28.4151 41.8003L27.9466 42.2717L27.5951 42.7448L27.3613 43.0977L27.1267 43.4506L26.892 43.8052L26.6582 44.2766L26.5405 44.748L26.4236 45.2212L26.1898 45.811V46.2824L26.0729 46.8723L26.1898 47.4622V47.9336L26.4236 48.5235L26.6582 48.9966L27.0098 49.468L27.3613 49.9394L27.9475 50.4125L28.4159 50.6469L29.0021 50.7654L29.4705 50.8839L29.9398 51.0024L30.4083 50.8839H30.8776L31.2291 50.7654V54.3047H31.1122L30.7607 54.4215L30.2922 54.54L29.9407 54.6585H28.6463L28.1778 54.5383H27.7094L27.3579 54.4198L26.8886 54.303L26.537 54.0669L26.0686 53.9484L25.7171 53.7123L25.2486 53.3594L24.7802 53.0047L24.4287 52.6519L24.0771 52.1805L23.7256 51.8258L23.4918 51.4729L23.2572 51.0015L22.9056 50.1755L22.7879 49.7041L22.671 49.231L22.5541 48.8781V48.4067L22.4363 47.9336L22.5541 47.4622V46.5194L22.671 46.1648V45.6934L22.7879 45.222L22.9056 44.8674L23.0225 44.396L23.1394 44.0414L23.3732 43.6885L23.4909 43.2171L23.7247 42.8625L23.8425 42.5096L23.9594 42.2734L24.1932 41.9205L24.3101 41.6844L24.5447 41.4483L24.6616 41.2139L25.0131 40.7416L25.3647 40.2702L25.7162 39.9165L26.0677 39.5627L26.5362 39.0905L26.8877 38.8552L27.357 38.5014L27.7085 38.2653L28.177 37.9116L28.6454 37.6754L28.997 37.4402L29.4654 37.3225L29.9347 37.0864L30.4031 36.9679L30.7546 36.8503L31.2231 36.7326V40.15H31.2257ZM52.4392 40.5038L52.2054 40.2677L51.8538 40.15L51.5023 40.0324L51.0339 39.9139H49.6269L49.1584 40.0324L49.0415 40.15V36.6116H49.1584L49.6269 36.4939H49.9784L50.4468 36.3754H52.7898L53.1414 36.4939L53.4929 36.6116L53.8445 36.7292L54.0782 36.8468L54.4298 36.9644L54.6636 37.0829L54.8982 37.3191L55.2498 37.5543L55.6021 37.7905L55.9537 38.0257L56.1883 38.3795L56.423 38.6147L56.6568 38.9685L56.8906 39.3223L57.1252 39.676L57.2421 40.1474L57.3598 40.5012L57.4767 40.8541L57.5936 41.3272L57.7105 41.7986V42.1515L57.8274 42.6246V44.0388L57.7105 44.3934V44.9833L57.5936 45.4547L57.4767 45.8093L57.3598 46.2807L57.1252 46.7521L57.0083 47.2252L56.7737 47.6966L56.5399 48.168L56.3052 48.6394L56.0714 48.994L55.8377 49.4654L55.4853 49.8183L55.2506 50.2914L55.0168 50.5258L54.783 50.762L54.5484 50.9981L54.3146 51.2325L53.9631 51.4686L53.7284 51.7047L53.3769 51.9391L53.1422 52.1753L52.7907 52.5282L52.4392 52.6467L52.0876 52.8828L51.7361 53.1172L51.3845 53.3533L50.6815 53.7062L50.213 53.9423L49.8615 54.0608L49.51 54.1793L49.0415 54.2978V50.7585L49.2753 50.64L49.6269 50.5215L50.0953 50.2871L50.4468 49.9325L50.9153 49.6981L51.2668 49.462L51.6183 49.1073L51.8521 48.8729L52.2037 48.5183L52.4374 48.2839L52.789 47.694L53.1405 47.2226L53.3752 46.7495L53.609 46.1596L53.8436 45.5697L53.9605 45.0983L54.0774 44.5084V42.8616L53.9605 42.3902L53.7258 41.9188L53.4921 41.4457L53.2583 41.0928L52.9059 40.739L52.4392 40.5038ZM49.0407 40.15H48.6891L48.2198 40.3853L47.7514 40.6214L47.1652 40.9743L46.8137 41.3289L46.3452 41.6818L45.876 42.1532L45.4075 42.7448L45.2906 42.9792L45.056 43.3339L44.8222 43.8052L44.5884 44.1581L44.4707 44.6313L44.2369 45.2212L44.12 45.6925V46.2824L44.0031 46.8723L44.12 47.3437V47.9336L44.3538 48.4067L44.5884 48.9966L44.94 49.468L45.2915 49.9394L45.8777 50.294L46.347 50.5284L46.8154 50.7646L47.4016 50.8831H48.3384L48.8077 50.7646H49.0415V54.3039L48.69 54.4207L48.2207 54.5392H47.4007L46.9323 54.6576L46.5808 54.5392H45.6439L45.2924 54.4207L44.8239 54.1863L44.4724 54.0678L44.004 53.8316L43.5347 53.5972L43.0662 53.2426L42.7147 53.0065L42.2463 52.5351L41.8947 52.1822L41.6609 51.8276L41.4271 51.3562L41.1925 51.0033L40.9587 50.5302L40.8418 50.1773L40.7249 49.7059L40.6072 49.2327L40.4903 48.7614V46.5212L40.6072 46.048V45.5766L40.7249 45.2237L40.8418 44.7506L40.9587 44.3977L41.0765 43.9263L41.3103 43.5717L41.428 43.2188L41.5449 42.8642L41.7795 42.5113L41.8964 42.1567L42.1311 41.9223L42.248 41.5677L42.4826 41.3333L42.5995 41.0971L42.9511 40.6257L43.3026 40.2711L43.6541 39.7997L44.0065 39.446L44.475 39.0922L44.8265 38.7384L45.178 38.3847L45.6465 38.1494L46.1149 37.9133L46.4664 37.6772L46.9349 37.4419L47.4033 37.2066L47.8717 37.0881L48.2233 36.852L48.6926 36.7344L49.0441 36.6167V40.15H49.0407ZM107.876 40.3853L107.525 40.2677L107.173 40.15L106.822 39.9139H105.063L104.594 40.0324H104.361V36.6116H104.477L104.947 36.4939L105.416 36.3754H108.111L108.462 36.4939L108.814 36.6116L109.165 36.7292L109.4 36.8468L109.75 36.9644L109.985 37.0829L110.22 37.3191L110.57 37.5543L110.921 37.7905L111.273 38.0257L111.506 38.3795L111.741 38.6147L111.976 38.9685L112.208 39.3223L112.443 39.676L112.561 40.1474L112.794 40.5012L112.912 40.8541V41.3272L113.029 41.6801L113.147 42.6246V43.922L113.029 44.3934V44.8648L112.912 45.3362L112.794 45.8093L112.678 46.2807L112.56 46.7521L112.325 47.2252L112.091 47.6966L111.858 48.168L111.623 48.5209L111.39 48.994L111.156 49.4654L110.569 50.2914L110.335 50.5258L110.102 50.762L109.867 50.9981L109.633 51.2325L109.4 51.4686L109.047 51.7047L108.814 51.9391L108.462 52.1753L108.111 52.4097L107.877 52.6458L107.526 52.8819L107.056 53.1163L106.705 53.3525L106.354 53.4709L105.651 53.8238L105.181 54.06L104.83 54.1785L104.362 54.297V50.6461H104.595L105.063 50.4117L105.416 50.1755L105.884 49.9394L106.237 49.705L106.587 49.4689L106.94 49.1142L107.29 48.8799L107.525 48.5252L107.758 48.2908L108.11 47.7009L108.461 47.2295L108.696 46.6379L108.929 46.1665L109.163 45.5766L109.281 44.9868L109.399 44.5154V42.8616L109.281 42.3902L109.046 41.9188L108.813 41.4457L108.579 41.0928L108.228 40.739L107.876 40.3853ZM104.36 40.0315L104.008 40.1492L103.539 40.3844L103.071 40.6205L102.601 40.9734L102.132 41.3281L101.664 41.681L101.196 42.1524L100.843 42.744L100.61 42.9784L100.376 43.333L100.141 43.8044L99.9081 44.1573L99.7903 44.6304L99.6725 45.2203L99.4379 45.6917V46.2816L99.3219 46.753L99.4379 47.3429V47.9327L99.6725 48.4059L99.9072 48.9957L100.258 49.4671L100.61 49.82L101.196 50.2932L101.665 50.5276L102.133 50.7637L102.719 50.8822H103.658L104.127 50.7637L104.361 50.6452V54.303L104.009 54.4198L103.54 54.5383H101.43L100.962 54.4198L100.611 54.303L100.141 54.1845L99.7903 54.066L99.3219 53.8299L98.8517 53.5955L98.3833 53.2409L98.0309 52.888L97.5625 52.5334L97.3295 52.1805L96.9771 51.8258L96.7442 51.3544L96.5096 51.0015L96.2749 50.5284L96.1589 50.057L96.0411 49.7041L95.9234 49.231L95.8056 48.7596V46.5194L95.9234 46.0463L96.0411 45.5749V45.222L96.1589 44.7489L96.2749 44.396L96.3927 43.9246L96.6273 43.57L96.7451 43.2171L96.8611 42.8625L97.0957 42.5096L97.2135 42.1549L97.4464 41.9205L97.7988 41.3307L97.9166 41.0945L98.2673 40.6231L98.6197 40.2685L98.9703 39.7971L99.3227 39.4434L99.7912 39.0896L100.142 38.7358L100.612 38.3821L100.963 38.1468L101.431 37.9107L101.9 37.6746L102.252 37.4393L102.72 37.204L103.191 37.0855L103.659 36.8494L104.01 36.7318L104.362 36.6141V40.0315H104.36ZM148.077 54.5383L148.547 54.4198L148.897 54.1854L149.366 54.0669L149.718 53.8308L150.069 53.7123L150.537 53.4779L150.89 53.2417L151.358 52.8888L151.711 52.6527L152.061 52.2998L152.882 51.5923L153.233 51.2377L153.585 50.8848L153.936 50.4134L154.287 49.9403L154.521 49.4689L154.874 48.9975L155.106 48.4076L155.341 47.9345L155.576 47.3446L155.809 46.7547L156.161 45.6934L156.277 44.7489L156.395 43.8061V42.8616L156.277 41.9188L155.926 40.9743L155.576 40.1492L155.106 39.4416L154.519 38.6156L153.816 38.0257L152.997 37.4358L152.059 36.9636L151.004 36.6098L149.831 36.3737L148.543 36.1384H148.073V40.502H148.659L149.129 40.6205L149.716 40.8549L150.066 41.0911L150.535 41.3272L150.887 41.6801L151.12 42.0347L151.355 42.5061L151.589 42.9775V43.4489L151.707 44.0388L151.589 44.6304V45.3362L151.355 45.9261L151.12 46.6336L150.887 47.2252L150.653 47.8151L150.302 48.2865L149.949 48.7579L149.599 49.2293L149.13 49.5839L148.66 49.8183L148.192 50.1729H148.074V54.5383H148.077ZM143.272 36.1393L139.052 55.0097H146.2L146.553 54.8929H147.021L147.372 54.7744L147.724 54.6559L148.075 54.5374V50.1738L147.606 50.2923L147.138 50.5267L146.552 50.6452L146.082 50.7637H144.323L146.784 40.5029H148.073V36.1393H143.272ZM130.966 36.2578L135.654 36.1393L132.255 50.7646H138.466L136.123 55.0097H126.746L130.966 36.2578ZM120.768 36.1393H122.878L123.581 36.2569L124.168 36.3746L124.636 36.4931L125.222 36.6107L125.691 36.8459L126.043 37.2006L126.394 37.4358L126.746 37.7896L126.979 38.1434L127.214 38.4971L127.448 38.8509L127.564 39.3223V40.6197L127.448 40.9726L127.331 41.6801L127.213 42.27L126.978 42.7431L126.745 43.333L126.511 43.8044L126.276 44.1573L125.925 44.5119L125.573 44.8648L125.34 45.2194L124.872 45.4538L124.637 45.69L124.286 45.8085L123.934 46.0429L123.583 46.1613L123.349 46.2798L122.996 46.3983L125.459 53.1198L121.591 55.0071L120.77 53.0022V44.7463L121.121 44.5119L121.355 44.2758L121.59 44.1573L121.823 43.9229L122.058 43.5683L122.175 43.3339L122.408 43.0977L122.526 42.7448L122.644 42.5087V42.1541L122.762 41.6827V40.6223L122.644 40.2677V39.9139L122.409 39.6786L122.293 39.4425L122.058 39.2064L121.824 39.0887L121.591 38.9711L121.356 38.8535L121.122 38.7358L120.771 38.6173V36.1393H120.768ZM111.861 55.0097L116.315 36.2569L120.769 36.1393V38.6156H120.184L118.777 45.2212H119.48L119.831 45.1027L120.183 44.9842L120.534 44.8657L120.768 44.7472V53.003L118.54 47.1076L116.432 55.0088H111.861V55.0097Z" fill="white"/>
<path fill-rule="evenodd" clip-rule="evenodd" d="M80.6952 49.7227L81.5241 55.0102L77.2635 55.1283L73.8308 36.2041H77.4995L79.9853 50.5442L80.6952 49.7227ZM104.957 21.277H108.508L87.0866 55.0102L82.9431 55.1283L79.5122 36.2041H83.1809L85.9027 51.3674L104.957 21.277Z" fill="white"/>
<path fill-rule="evenodd" clip-rule="evenodd" d="M65.5147 54.6538L65.983 54.5346L66.3345 54.2987L66.6859 54.1795L67.5065 53.8226L67.9748 53.5868L68.3263 53.3491L68.6777 52.994L69.146 52.7564L69.4975 52.4013L69.9666 52.0445L70.3181 51.6893L70.6695 51.3325L71.021 50.9774L71.3724 50.503L71.6061 50.0269L71.9584 49.5526L72.1922 49.0782L72.5436 48.4846L72.7773 48.0085L73.0111 47.415L73.2456 46.8214L73.5971 45.7534L73.7139 44.803L73.8308 43.8543V42.9038L73.5971 41.9551L73.3625 41.0047L73.0111 40.1743L72.5428 39.4624L71.9567 38.6312L71.2538 38.0376L70.4332 37.444L69.4958 36.9688L68.4414 36.6128L67.2702 36.3752L65.9813 36.1384H65.513V40.5294H66.099L66.5673 40.6487L67.1534 40.8846L67.5048 41.1222L67.9731 41.3598L68.3246 41.7149L68.5583 42.0717L68.7929 42.5461L69.0275 43.0204V43.4948L69.1443 44.0884L69.0275 44.6837L68.9097 45.394L68.676 45.9875L68.5583 46.6995L68.3246 47.2948L68.0908 47.8884L67.7394 48.3628L67.388 48.8371L67.0365 49.3115L66.5682 49.6683L66.0999 49.9042L65.6316 50.2611H65.5147V54.6538ZM60.7105 36.1393L56.4923 55.1282H63.6398L63.9912 55.0107H64.3427L64.811 54.8914L65.1624 54.7722L65.5139 54.653V50.2619L65.0456 50.3812L64.5764 50.617L63.9904 50.7363L63.5221 50.8555H61.764L64.225 40.5303H65.5139V36.1393H60.7105Z" fill="white"/>
</svg>
