<svg width="165" height="83" viewBox="0 0 165 83" fill="none" xmlns="http://www.w3.org/2000/svg">
<g clip-path="url(#clip0_1_74)">
<path d="M-0.00706983 36.4478H3.73526V33.1132C3.73526 30.5534 4.58966 28.465 6.29846 26.8483C8.00726 25.2315 10.2458 24.4231 13.014 24.4231C15.0304 24.4231 17.2177 24.7768 19.5758 25.4841L18.7044 31.547C17.9184 31.3449 17.2178 31.2439 16.6026 31.2439C14.1077 31.2439 12.8603 32.3891 12.8603 34.6795V36.4478H18.7556V43.7738H12.8603V61.5583H3.73526V43.7738H-0.00706983V36.4478Z" fill="#D2D2D2"/>
<path d="M32.0395 35.8046C28.0068 35.8046 24.6913 37.0508 22.0941 39.5432C19.531 42.002 18.2493 45.1682 18.2493 49.0417C18.2493 52.9489 19.5309 56.149 22.0941 58.6414C24.6572 61.1339 27.9727 62.3801 32.0395 62.3801C36.1063 62.3801 39.4212 61.1508 41.9843 58.692C44.5816 56.1996 45.8804 52.9825 45.8804 49.042C45.8804 47.5218 45.6775 46.1119 45.2764 44.8102C44.9969 44.8772 44.7104 44.9117 44.4228 44.913C43.8466 44.9122 43.2787 44.7782 42.7646 44.5218C42.2505 44.2654 41.8047 43.8937 41.4629 43.4365C41.2186 43.4875 40.9696 43.5138 40.7198 43.5151C39.7431 43.5151 38.8063 43.1327 38.1157 42.452C37.425 41.7713 37.037 40.8481 37.037 39.8854C37.038 39.784 37.0433 39.6826 37.0529 39.5816C36.4451 39.2793 35.9342 38.8168 35.577 38.2455C35.2198 37.6743 35.0303 37.0166 35.0295 36.3456C35.0304 36.2507 35.0352 36.1559 35.0437 36.0614C34.092 35.8935 33.0925 35.8047 32.0395 35.8047V35.8046ZM32.0395 43.2319C33.5774 43.2319 34.8418 43.7704 35.8329 44.8482C36.824 45.926 37.3196 47.324 37.3196 49.0418C37.3196 50.7596 36.8069 52.1743 35.7816 53.2859C34.7905 54.3637 33.5432 54.9028 32.0395 54.9028C30.5359 54.9028 29.2885 54.3469 28.2975 53.2354C27.3064 52.1239 26.8108 50.7259 26.8108 49.0418C26.8108 47.324 27.3064 45.926 28.2975 44.8482C29.2886 43.7704 30.5359 43.2319 32.0395 43.2319L32.0395 43.2319Z" fill="#D2D2D2"/>
<path d="M62.0225 35.791C66.0894 35.791 69.4045 37.0373 71.9677 39.5298C74.5651 41.9886 75.8638 45.1548 75.8638 49.0283C75.8638 52.9692 74.5651 56.1859 71.9677 58.6784C69.4045 61.1373 66.0894 62.3667 62.0225 62.3667C57.9555 62.3667 54.6404 61.1204 52.0772 58.6279C49.514 56.1354 48.2324 52.9355 48.2324 49.0283C48.2324 45.1548 49.514 41.9886 52.0772 39.5298C54.6746 37.0373 57.9897 35.791 62.0225 35.791ZM56.7936 49.0283C56.7936 50.7125 57.2892 52.1103 58.2803 53.2218C59.2714 54.3334 60.5187 54.8891 62.0225 54.8891C63.5262 54.8891 64.7737 54.3502 65.7648 53.2724C66.7901 52.1608 67.3027 50.7462 67.3027 49.0283C67.3027 47.3105 66.8072 45.9127 65.8161 44.8348C64.825 43.757 63.5604 43.2181 62.0225 43.2181C60.5187 43.2181 59.2714 43.757 58.2803 44.8348C57.2892 45.9127 56.7936 47.3105 56.7936 49.0283Z" fill="#D2D2D2"/>
<path d="M96.4976 25.1305H105.674L105.725 61.5584H96.4976V58.2238C95.6432 60.9521 93.285 62.3162 89.4231 62.3162C86.1422 62.3162 83.4594 61.07 81.3747 58.5775C79.2899 56.0849 78.2476 52.8682 78.2476 48.9273C78.2476 45.1549 79.3412 42.0224 81.5284 39.5299C83.7499 37.0037 86.5011 35.7406 89.782 35.7406C92.3452 35.7406 94.0369 36.1616 94.8571 37.0037C95.6773 37.8457 96.2242 38.6036 96.4976 39.2772V25.1305ZM87.1675 49.1294C87.1675 50.8473 87.629 52.2451 88.5517 53.3229C89.5087 54.3671 90.739 54.8892 92.2428 54.8892C93.7465 54.8892 94.9597 54.3671 95.8825 53.3229C96.8052 52.2451 97.2665 50.8473 97.2665 49.1294C97.2665 47.3443 96.8052 45.9127 95.8825 44.8349C94.9597 43.757 93.7465 43.2181 92.2428 43.2181C90.739 43.2181 89.5087 43.7739 88.5517 44.8854C87.629 45.9633 87.1675 47.3779 87.1675 49.1294Z" fill="#D2D2D2"/>
<path d="M116.234 48.2705L107.007 36.4479H117.926L120.54 40.3888C121.087 41.1635 121.463 42.2582 121.668 43.6728C121.839 42.8308 121.993 42.2076 122.13 41.8034C122.266 41.3656 122.506 40.894 122.847 40.3888L125.462 36.4479H136.381L127.102 48.2705L137.355 61.5584H126.436L123.001 56.6575C122.42 55.8155 121.976 54.6871 121.668 53.2724C121.532 54.0134 121.378 54.5692 121.207 54.9397C121.07 55.3102 120.746 55.8828 120.233 56.6575L116.901 61.5584H106.033L116.234 48.2705Z" fill="#D2D2D2"/>
<path d="M137.637 36.4478H146.762V39.8835C147.856 37.1552 150.214 35.791 153.836 35.791C157.117 35.791 159.783 37.0036 161.834 39.4288C163.918 41.8202 164.961 44.9696 164.961 48.8768C164.961 52.885 163.918 56.1354 161.834 58.6279C159.783 61.0868 157.1 62.3162 153.785 62.3162C150.436 62.3162 148.095 60.9689 146.762 58.2742V71.0063H137.637V36.4478ZM146.147 49.1294C146.147 50.9482 146.608 52.3966 147.531 53.4745C148.488 54.5186 149.752 55.0407 151.325 55.0407C152.828 55.0407 154.024 54.5186 154.913 53.4745C155.836 52.3966 156.297 50.9819 156.297 49.2304C156.297 47.4789 155.836 46.0474 154.913 44.9359C153.99 43.8244 152.777 43.2686 151.273 43.2686C149.769 43.2686 148.539 43.8075 147.582 44.8854C146.625 45.9632 146.147 47.3779 146.147 49.1294Z" fill="#D2D2D2"/>
<path d="M130.577 20.7738C130.577 26.7007 126.077 30.9594 121.678 35.2948C117.407 31.0856 112.779 26.6449 112.779 20.7738C112.779 15.9302 116.763 12.0033 121.678 12.0033C126.592 12.0033 130.577 15.9298 130.577 20.7738Z" fill="#D2D2D2"/>
<path d="M119.306 15.8043C120.053 15.4526 120.89 15.2956 121.716 15.3075C123.013 15.2961 124.304 15.7543 125.314 16.5527C126.226 17.2703 126.905 18.2757 127.204 19.3896C127.571 20.7076 127.384 22.1608 126.709 23.3532C126.24 24.1964 125.535 24.9016 124.707 25.4055L121.173 22.157C121.101 22.0395 121.172 21.9048 121.206 21.7873C121.317 21.4685 121.245 21.0893 121.007 20.8442L118.933 18.8924C118.858 18.8024 118.685 18.8043 118.636 18.92C118.594 18.9823 118.614 19.0599 118.666 19.1098L120.242 20.5968C120.325 20.6586 120.34 20.7881 120.261 20.8585C120.189 20.9294 120.067 20.9103 120.005 20.8366L118.476 19.3972C118.4 19.2959 118.226 19.2821 118.165 19.4039C118.082 19.5561 118.26 19.6599 118.352 19.7522L119.785 21.1031C119.92 21.2058 119.796 21.428 119.637 21.3905C119.518 21.3424 119.441 21.233 119.347 21.1511L118.036 19.9168C117.966 19.8507 117.863 19.7565 117.762 19.8236C117.647 19.8735 117.644 20.0429 117.74 20.1138L119.052 21.3443C119.157 21.4514 119.286 21.5403 119.366 21.6688C119.413 21.8215 119.191 21.9595 119.081 21.833L117.552 20.3974C117.491 20.3422 117.415 20.2651 117.323 20.2989C117.192 20.326 117.15 20.5121 117.256 20.592L119.258 22.4799C119.535 22.7169 119.86 22.8205 120.203 22.7407C120.391 22.6944 120.549 22.5285 120.675 22.6253L123.892 25.8137C122.943 26.1772 121.906 26.3195 120.895 26.1824C119.523 26.0031 118.219 25.3274 117.314 24.2929C116.508 23.3875 116.024 22.2103 115.972 21.006C115.869 19.1145 116.885 17.2184 118.516 16.2225L122.178 19.6932C122.302 19.7883 122.297 19.9563 122.276 20.0947C122.154 20.632 122.359 21.1868 122.675 21.6226C123.065 22.157 123.656 22.5738 124.324 22.6766C124.707 22.7351 125.134 22.649 125.408 22.3635C125.708 22.057 125.764 21.5926 125.671 21.192C125.509 20.5106 125.03 19.9249 124.422 19.5732C124.024 19.351 123.549 19.2083 123.091 19.3101C122.942 19.3463 122.766 19.3406 122.657 19.2197L119.306 15.8043Z" fill="white"/>
</g>
<defs>
<clipPath id="clip0_1_74">
<rect width="165" height="59" fill="white" transform="translate(0 12)"/>
</clipPath>
</defs>
</svg>
