<svg width="20" height="16" viewBox="0 0 20 16" fill="none" xmlns="http://www.w3.org/2000/svg">
<path d="M2.21046 0.945435H17.7895C19.2593 0.945435 20 1.63914 20 3.05008V12.9501C20 14.3493 19.2593 15.0548 17.7895 15.0548H2.21046C0.740741 15.0548 0 14.3493 0 12.9501V3.05008C0 1.63914 0.740741 0.945435 2.21046 0.945435ZM9.99412 11.0571L17.9189 4.55508C18.2011 4.31992 18.4245 3.77906 18.0717 3.29699C17.7307 2.81492 17.1076 2.80317 16.6961 3.09711L9.99412 7.63562L3.30394 3.09711C2.89242 2.80317 2.26925 2.81492 1.92828 3.29699C1.57554 3.77906 1.79894 4.31992 2.08113 4.55508L9.99412 11.0571Z" fill="white"/>
</svg>
